# xmcd
#
# Track frame offsets:
#	150
#	14963
#	24220
#	37123
#	47973
#	62158
#	73455
#	86113
#	97925
#	112518
#	125263
#	135933
#
# Disc length: 1951 seconds
#
# Revision: 1
# Processed by: cddbd v1.5.2PL0 Copyright (c) Steve Scherf et al.
# Submitted via: EasyCDDAExtractor 16.0.6.1
#
DISCID=a1079d0c
DTITLE=Frankie Laine - C-015 High Noon
DYEAR=1900
DGENRE=Country
TTITLE0=Jezebel
TTITLE1=Rawhide
TTITLE2=Moonlight gambler
TTITLE3=Hummingbird
TTITLE4=Don't fence me in
TTITLE5=Rose, Rose I love you
TTITLE6=High noon
TTITLE7=Mule train
TTITLE8=Jealousy
TTITLE9=Granada
TTITLE10=The love of a woman
TTITLE11=Sixteen tons
EXTD=
EXTT0=
EXTT1=
EXTT2=
EXTT3=
EXTT4=
EXTT5=
EXTT6=
EXTT7=
EXTT8=
EXTT9=
EXTT10=
EXTT11=
PLAYORDER=
